<?xml version="1.0" encoding="UTF-8" standalone="no"?>
<!-- Created with Inkscape (http://www.inkscape.org/) -->

<svg
   version="1.1"
   id="svg1"
   width="1440"
   height="2560"
   viewBox="0 0 1440 2560"
   sodipodi:docname="nix_horizontal.png"
   inkscape:export-filename="nix_horizontal.svg"
   inkscape:export-xdpi="96"
   inkscape:export-ydpi="96"
   xmlns:inkscape="http://www.inkscape.org/namespaces/inkscape"
   xmlns:sodipodi="http://sodipodi.sourceforge.net/DTD/sodipodi-0.dtd"
   xmlns="http://www.w3.org/2000/svg"
   xmlns:svg="http://www.w3.org/2000/svg">
  <defs
     id="defs1" />
  <sodipodi:namedview
     id="namedview1"
     pagecolor="#ffffff"
     bordercolor="#000000"
     borderopacity="0.25"
     inkscape:showpageshadow="2"
     inkscape:pageopacity="0.0"
     inkscape:pagecheckerboard="0"
     inkscape:deskcolor="#d1d1d1"
     showgrid="false"
     inkscape:export-bgcolor="#008080ff">
    <inkscape:page
       x="0"
       y="0"
       width="1440"
       height="2560"
       id="page2"
       margin="0"
       bleed="0" />
  </sodipodi:namedview>
  <rect
     style="fill:#008080;fill-opacity:1"
     id="rect2"
     width="1742.3112"
     height="2800.1428"
     x="-130.10765"
     y="-101.82338"
     inkscape:label="background" />
  <g
     id="g2"
     inkscape:label="nix">
    <path
       style="fill:#c2c2c2;fill-opacity:1"
       d="m 698.28125,1093.7461 105.02931,181.9161 24.42464,-42.3047 -28.78334,-49.8542 39.91497,-69.1348 -11.86743,-20.555 h -24.77029 l -27.43647,47.5214 -27.75502,-48.0731 h -48.88579 -0.10496 -0.0547 z"
       id="path1" />
    <path
       style="fill:#000000"
       d="m 870.67549,1168.3421 -105.02931,181.9161 h 48.84926 l 28.78334,-49.8542 h 79.83002 l 11.8674,-20.555 -12.3852,-21.4517 h -54.87293 l 27.75503,-48.0731 -24.4429,-42.3364 -0.0525,-0.091 -0.0273,-0.047 z"
       id="path1-3" />
    <path
       style="fill:#c2c2c2;fill-opacity:1"
       d="M 891.906,1354.7343 H 681.84735 l 24.42463,42.3047 h 57.56667 l 39.915,69.1348 23.73485,-10e-5 12.3851,-21.4517 -27.4364,-47.5213 h 55.51 l 24.4429,-42.3364 0.052,-0.091 0.027,-0.047 z"
       id="path1-3-1" />
    <path
       style="fill:#000000"
       d="M 741.18605,1466.0801 636.1567,1284.164 l -24.42463,42.3047 28.78334,49.8542 -39.91499,69.1348 11.86751,20.5549 h 24.77027 l 27.43645,-47.5213 27.75497,48.073 48.8859,10e-5 0.10481,-5e-4 0.0542,-1e-4 z"
       id="path1-3-1-3" />
    <path
       style="fill:#c2c2c2;fill-opacity:1"
       d="M 568.94907,1391.8086 673.97836,1209.8925 H 625.1291 l -28.78334,49.8542 h -79.82998 l -11.86731,20.555 12.38513,21.4517 h 54.87288 l -27.75496,48.073 24.44287,42.3365 0.0528,0.091 0.0272,0.047 z"
       id="path1-3-1-3-6" />
    <path
       style="fill:#000000"
       d="m 548.42396,1205.1741 h 210.05861 l -24.42463,-42.3047 h -57.56667 l -39.91499,-69.1348 -23.73481,10e-5 -12.38515,21.4517 27.43644,47.5213 h -55.50992 l -24.44305,42.3364 -0.0524,0.091 -0.0271,0.047 z"
       id="path1-3-1-3-6-2" />
  </g>
</svg>
